DataType=double
version=3
OpenSimVersion=4.5-2023-11-26-efcdfd3eb
endheader
time	EMG01_right_gast_med	EMG02_right_glut_max	EMG03_left_gast_med	EMG04_left_glut_max	EMG05_right_glut_med	EMG06_right_bic_fem	EMG07_right_rect_fem	EMG08_right_vast_lat	EMG09_right_vast_med	EMG10_right_tens_fasc_lat	EMG11_left_glut_med	EMG12_left_bic_fem	EMG13_left_rect_fem	EMG14_left_vast_lat	EMG15_left_vast_med	EMG16_left_tens_fasc_lat
0	0.001406764085520283	0.003104359440063502	0.005523645313943564	0.005036447085886387	-0.002383391181052199	-0.0006238152243161477	-0.003375437620249979	-0.003826327522951894	-0.002359943650896282	-0.001188644290923331	0.001539088764044027	-0.000307763065238912	0.0005415270980780064	0.0005713377902555974	0.001543633254585937	0.01085789703052187
0.01	0.00491525821410064	0.01347088224310725	0.01997790849331164	0.007892566950053475	-0.001399825948103015	0.004137767197228573	-0.001021637760806241	-0.002751093147653532	-0.002211010971420424	0.004383158854951477	0.01046882883548337	0.002556479151242969	0.004389287566727308	0.004322471937372445	0.003863966172372299	0.02344469258434204
0.02	0.008327905746109308	0.02349387716457758	0.03512365257826851	0.01064447143394567	-0.0003927143477660607	0.009233209279105297	0.001320356452678911	-0.001640028140458376	-0.002049758500063478	0.009847294141581964	0.01943271152835332	0.005440707025881265	0.008297114775775008	0.008029759147502192	0.006199212307577393	0.03548701359254997
0.03	0.01161526085938936	0.03311122449357791	0.05085841252605264	0.01326393421639234	0.0006375943070956507	0.01465366914102862	0.003645758509194574	-0.000492234976101049	-0.001871631585292766	0.01514878704929918	0.02833933097809395	0.008330282841761389	0.01224622721480285	0.01166726008641234	0.00852560066927841	0.046897338125741
0.04	0.01474931751833373	0.04226599403291141	0.06707370763992308	0.0157242249336606	0.001691731353851249	0.02038709337698275	0.005950733445540837	0.0006935636614015635	-0.001671253408605916	0.02023668896716189	0.03709891374205455	0.01121037460817888	0.01621714143278667	0.01521006806175838	0.01081986388169748	0.05759389196068734
0.05	0.01770397795696838	0.05090740679223418	0.08365655104959892	0.01800060654918292	0.002771391776130222	0.02641818145304564	0.008232470405773941	0.001919024698737669	-0.00144242315574273	0.02506526735675254	0.04562478174451419	0.01406609777198336	0.02018984567393631	0.0186346970589467	0.0130596890383745	0.06750187326545974
0.06	0.02045548790154152	0.05899166265940127	0.1004908633010524	0.02007081050363985	0.003879368832112356	0.03272838541315531	0.01048921021543492	0.003186157148433221	-0.001178137483679982	0.0295950187644791	0.05383472055762372	0.0168826515646402	0.0241439670513485	0.02191943552775015	0.01522412563327028	0.07655458934501948
0.07000000000000001	0.02298282960411084	0.06648261297412517	0.1174587607833514	0.02191548175274738	0.005019537978591757	0.03929594868354294	0.01272022785002228	0.004497266339181695	-0.00087063686285173	0.03379347031451232	0.06165222771694574	0.0196454478939516	0.02805893171559502	0.02504465794917617	0.01729393996605183	0.08469448258885644
0.08	0.02526806505077797	0.07335226368636498	0.1344417125021636	0.02351858664479822	0.006196790871437036	0.04609598819669043	0.01492577283771374	0.005854870946337977	-0.0005114775241013931	0.03763574988595305	0.0690076221118389	0.02234023075186049	0.03191411873525047	0.02799308772042926	0.01925190956139489	0.0918740254747515
0.09	0.02729662314391472	0.07958110118192827	0.1513215746409838	0.02486777703014186	0.007416922360152035	0.05310062393028334	0.01710697250181321	0.00726159543078398	-9.162893801250052e-05	0.04110491947253055	0.07583899929947012	0.02495318422330947	0.03568900891744006	0.03075000649600985	0.02108305494264943	0.09805646782129364
0.1	0.02905752630742076	0.08515823936820385	0.167981520717837	0.02595470427925614	0.008686474765008213	0.06027915930834005	0.01926570392368137	0.008720041710785041	0.0003984039642608321	0.04419207802772216	0.0820930189051355	0.02747102753327898	0.03936332988421446	0.03330340688909508	0.02277480917872495	0.1032164238371393
0.11	0.03054355371175783	0.09008139263548165	0.184306888725398	0.02677527722076222	0.01001254460125562	0.06759831476810248	0.0214044409321279	0.01023264476526413	0.0009684352436737038	0.04689624860855184	0.08772551111399593	0.02988109634637611	0.04291719860291095	0.03564408723346736	0.02431712782394238	0.1073402916987338
0.12	0.03175134016867538	0.09435668367124024	0.2001859668535556	0.02732985854879823	0.01140255753687529	0.07502251512796126	0.02352608260428131	0.01180151736851386	0.00162843103583687	0.04922407008099654	0.09270189191278695	0.03217141089872566	0.04633126246087842	0.03776568877814999	0.02570254317934374	0.1104265030787939
0.13	0.03268141193230378	0.09799829765977119	0.2155107363242045	0.02762339509369985	0.01286401788878308	0.08251422925512855	0.0256337698664283	0.01342828935084383	0.002388323714795226	0.05118931689978971	0.09699738159579591	0.03433073327128736	0.04958684007158475	0.03966467723495088	0.02692616742622113	0.1124856031108615
0.14	0.0333381631502682	0.1010279960464772	0.2301775842580077	0.02766547843084442	0.01440423943129762	0.0900343580124658	0.0277306967920599	0.01511394679641479	0.00325781006630099	0.05281227235492988	0.1005970265669953	0.03634861750255338	0.05266606323167979	0.04134027207191331	0.02798564947156972	0.1135401631157239
0.15	0.03372977899577728	0.1034745043034446	0.2440879924589622	0.02747033347127589	0.01603006468610669	0.09754266356148711	0.02981992296969164	0.01685867648375141	0.004246136827913807	0.05411898149110908	0.1034955297297563	0.03821545668011745	0.05555202140195688	0.04279432827005885	0.02888109047887522	0.1136245301066924
0.16	0.03386811301057181	0.105372788813011	0.2571492000566581	0.02705673397325653	0.01774758010891095	0.104998229891735	0.03190419279725661	0.01866172063706355	0.005361877285375024	0.05514040974054386	0.1056969007997636	0.039922530631456	0.05822890936546279	0.04403117626128873	0.02961492295290793	0.1127844190478722
0.17	0.03376852688245249	0.1067632382221739	0.2692748296813791	0.02644784540247568	0.01956183462594316	0.1123599412188371	0.03398576694762871	0.02052124672508542	0.00661270286647667	0.05591153248039452	0.1072139452287201	0.0414620567787136	0.06068217740279403	0.04505742638029354	0.0301917578448582	0.1110763559713303
0.18	0.03344970108099985	0.1076907651784707	0.2803854606707153	0.02567099697183614	0.02147656882850404	0.1195869619394775	0.03606627080785812	0.02243423669716894	0.008005153917463788	0.05647037969351378	0.1080676168680473	0.04282724558094565	0.06289868192886416	0.04588174455509534	0.03061820367365126	0.1085669821859132
0.19	0.03293342456661197	0.1082038457572588	0.2904091328195639	0.02475738562201573	0.02349396187674956	0.1266391993421562	0.0381465644234855	0.02439639968519823	0.009544414133986687	0.05685705893335143	0.1082862622174554	0.04401236102086523	0.06486683349376655	0.04651460626784531	0.03090266151586272	0.1053322314920623
0.2	0.03224437105193193	0.1083535158865163	0.2992817724830654	0.02374171520251394	0.02561440282228388	0.1334777285112606	0.04022663815085521	0.02640211172709515	0.01123409345088505	0.05711277884097336	0.107904782928909	0.04501278590454238	0.06657673844090217	0.04696803587537326	0.03105510000836441	0.1014563931194871
0.21	0.03140986809677179	0.1081923460201296	0.3069475458385656	0.02266177455754847	0.02783629260252853	0.1400651583141084	0.04230553769121421	0.02844438541275656	0.01307602454006957	0.05727889438005577	0.1069637403711121	0.04582509135174034	0.06802033031593308	0.04725533790091316	0.03108681486977856	0.09703107318066141
0.22	0.03045966397348216	0.1077734165900683	0.313359154599939	0.0215579588213558	0.03015588237113743	0.1463659189200079	0.04438132146711711	0.03051487154672803	0.01507007835002042	0.05739599352532926	0.1055084234634199	0.04644710962828151	0.069191487389578	0.04739082590840028	0.03101017744889623	0.09215406724611301
0.23	0.02942569604491459	0.1071493170762486	0.3184780928129112	0.02047273894815042	0.03256715315232928	0.1523464565237729	0.04645105239908729	0.03260389402958445	0.0172140042346857	0.05750304311379484	0.1035878990145033	0.04687800910030939	0.07008613326456191	0.04738955339900774	0.03083837637280699	0.08692815643610585
0.24	0.02834186345125654	0.1063711908976684	0.3222748801611265	0.01945008533188222	0.0350617411216935	0.1579753310800718	0.04851082495912323	0.03470051821511088	0.01950330008851813	0.05763660888759192	0.1012540618123891	0.04711836929940126	0.07070231810903276	0.04726705016779664	0.03058515571483203	0.08145983940523588
0.25	0.02724380615681806	0.1054878466993284	0.324729280759407	0.0185348522949089	0.03762891215799855	0.1632232263890266	0.0505558269202282	0.03679265202000354	0.02193111754478193	0.05783016166864082	0.09856069936229984	0.047170252797037	0.07104027848083551	0.04703906686894396	0.03026455253146853	0.07585801314030062
0.26	0.02616869176863062	0.1045449537470134	0.3258305096753353	0.01777213103333181	0.04025558860674801	0.1680628940906595	0.05258043369257454	0.03886717810029595	0.02448820677086788	0.05811347846260037	0.09556258400838004	0.0470372688674186	0.07110247428634801	0.04672133014303145	0.0298906363643947	0.07023261674604135
0.27	0.02515501093948072	0.1035843351903169	0.3255774240525117	0.0172065790985064	0.04292643028239674	0.1724690596744697	0.05457833175152322	0.04091011459376705	0.02716290474402501	0.05851214430498704	0.09231460400471109	0.04672462207837322	0.07089360223026313	0.04632931037187631	0.02947725339561707	0.06469325409322652
0.28	0.02424238159603131	0.1026433686454968	0.3239786919595116	0.01688173480188698	0.04562397046640298	0.1764183189031284	0.05654266641974605	0.04290680144949181	0.02994117010943055	0.05904715786159362	0.08887094486140927	0.04623913771073034	0.07042058554836492	0.04587800364691014	0.02903777819456253	0.05934781277958163
0.29	0.02347136166440509	0.1017544995652968	0.3210529294667637	0.01683932534077607	0.04832880603900414	0.1798890495414195	0.05846620800954427	0.04484210932163305	0.03280666679714	0.05973464120832105	0.08528433204277773	0.04558925606721104	0.06969253914383827	0.04538172873886867	0.02858487620578906	0.05430109760549104
0.3	0.02288326934304841	0.1009448693807657	0.316828794602225	0.01711857796793987	0.05101983914606635	0.1828613586674977	0.06034152900053628	0.04670066819130913	0.03574089751590875	0.06058565206197649	0.0816053450989814	0.04478498946919685	0.06872070747790102	0.0448539389700162	0.02813028020629126	0.04965349633325411
0.31	0.02252000927570159	0.1002360574281612	0.3113450254274946	0.01775554392627473	0.05367456632202448	0.1853170815395004	0.0621611837626173	0.04846711283281682	0.03872338708551522	0.06160609530706584	0.07788181158301867	0.04383783852927427	0.06751837058973806	0.04430704836531814	0.02768458390840653	0.0454996942767076
0.32	0.02242390221832424	0.09964393346816025	0.3046504076215751	0.01878244504723382	0.05626941005753277	0.187239844310192	0.06391788180116614	0.05012634159224567	0.04173191435354055	0.06279673002880369	0.07415828696894869	0.04276066760068609	0.06610071265917415	0.04375227164430642	0.02725705576880775	0.04192745305164416
0.33	0.02263751495244186	0.09917861654457075	0.2968036537050938	0.0202270530578096	0.05878008741145014	0.1886151996174987	0.06560464589796533	0.05166378372996672	0.04474279021740406	0.06415326814518359	0.07047562459459245	0.04156754289217772	0.064484648508988	0.04319947843500669	0.02685547598951493	0.0390164680514516
0.34	0.02320348624970716	0.09884453607318909	0.2878731716784196	0.02211211192384384	0.06118201002615918	0.1894308405371457	0.06721494779419321	0.0530656691368547	0.0477311780938223	0.06566656066115811	0.0668706377551206	0.04027354009688397	0.06268860670034371	0.04265706309134082	0.02648599968381304	0.0368373187482724
0.35	0.02416434367091713	0.09864059179550082	0.2779366972630968	0.02445481387990468	0.06345070922074479	0.1896768934788952	0.06874281605038104	0.05431929291338092	0.05067145200407948	0.06732286713946181	0.06337585456160176	0.03889453066693743	0.06073227285831847	0.04213183239991516	0.02615304915191215	0.03545052536015157
0.36	0.02556230497532222	0.09856040942535292	0.2670807636853818	0.02726633992686641	0.06556227840096861	0.1893462838519817	0.0701829131989713	0.05541326637097625	0.05353758608287246	0.06910420309958076	0.06001936484493763	0.03744695663573318	0.05863630200788721	0.04162891442652276	0.02585923810337844	0.03490572455673799
